<svg width="512" height="512" viewBox="0 0 512 512" fill="none" xmlns="http://www.w3.org/2000/svg">
<path d="M149 273.5C150.14 276.48 150.9 275.87 151 276C157.09 284.22 165.1 298.88 172 308.75C194.26 340.61 221.41 368.55 249.5 395.25C249.06 395.83 239.93 395.21 238.5 395C236.71 394.74 234.28 394.01 232.5 393.5C230.14 392.82 227.54 391.96 225.5 390.5C193.05 359.94 165.73 324.27 143 286C139.21 279.62 132.49 268.6 129.5 262.75C128.31 260.41 127.61 256.76 126 255.5C126.01 253.52 125.88 251.47 126 249.5C127.88 249.4 130.88 233.64 132.5 236.25C132.89 236.87 135.25 246.06 137 250.25C139.75 256.8 144.43 265.47 148 271.75C148.67 272.93 146.78 273.05 149 273.5Z" fill="url(#paint0_linear_1575_2)"/>
<path d="M143 286C165.73 324.27 193.05 359.94 225.5 390.5C215.52 389.27 200.76 381.67 191.75 376C159.91 355.99 136 320.91 129 284C130.71 283.92 130.78 289.5 131.5 292.25C135.07 305.97 141.44 318.91 148.75 331L150 330.75C151.68 323.63 153.32 316.35 156.5 309.75C156.5 308.36 143.43 290.17 143 286Z" fill="#8E60A8"/>
<path d="M143 286C143.43 290.17 156.49 308.36 156.5 309.75C153.32 316.35 151.68 323.63 150 330.75L148.75 331C141.44 318.91 135.07 305.97 131.5 292.25C130.78 289.5 130.71 283.92 129 284C127.36 275.38 125.95 264.21 126 255.5C127.61 256.76 128.31 260.41 129.5 262.75C132.49 268.6 139.21 279.62 143 286Z" fill="#B78EC1"/>
<path d="M390 230.5C393.04 251.76 392.78 278.93 387 299.75C382.61 315.54 364.87 345.1 353.5 357.25C351.87 358.99 333.78 374.91 332.25 376C313.44 389.39 295.71 394.47 273.75 399.5C267.89 399.54 242.34 400.07 239.25 398.5C238.47 398.1 238.57 395.74 238.5 395C239.93 395.21 249.06 395.83 249.5 395.25C221.41 368.55 194.26 340.61 172 308.75C165.1 298.88 157.09 284.22 151 276C151.1 274.81 150.05 274.1 150 274C149.65 273.3 149.38 272.71 149 272C140.89 256.98 133.33 241.1 131.25 224C129.11 232.24 126.53 240.96 126 249.5C125.88 251.47 126.01 253.52 126 255.5C125.95 264.21 127.36 275.38 129 284C136 320.91 159.91 355.99 191.75 376C200.76 381.67 215.52 389.27 225.5 390.5C227.54 391.96 230.14 392.82 232.5 393.5C231.87 400.13 212.83 391.69 207.25 391.5C146.26 366.32 113.68 304.39 120.5 239.5C124.04 205.81 142.55 166.98 168.25 144.5C186.07 128.92 216.91 113.16 242.59 114.13C246.09 114.26 261.09 113.23 265.78 113.08C290.1 112.31 322.21 127.95 338.75 140.49C367.01 161.92 383.47 193.22 389.5 227.74C389.58 228.23 389.9 229.8 390 230.49V230.5Z" fill="#F7E2EE"/>
<path d="M338.5 225C338.61 225.3 338.43 226.01 338.5 226.5C338.22 226.5 334.13 227.22 333 227.5C332.25 227.68 331.3 227 331.5 228.5C328.75 223.26 314.62 206.93 309.75 203C303.2 197.71 290.61 191.32 282.5 189C270.45 185.55 261.24 185.26 249 187C241.73 188.03 239.62 188.88 233 191.5C228.93 193.11 225.26 194.75 221.5 197C198.01 211.04 184.48 234.45 184.5 262C178.24 263.89 173.21 267.82 168 271.5C166.74 272.39 164.87 273.2 163.5 274C161.37 270.33 159.85 266.3 158 262.5L172.5 236.25C172.66 234.08 158.25 214.43 163 208.5C165.85 228.11 197.28 224.53 195 202.75C194.04 193.56 183.94 186.24 175 188.5L186.75 173.5L192 180.5C195.45 187.35 199.43 193.86 203.25 200.5C213.51 175.35 231.58 148.97 250 129C271.13 144.18 305.18 180.38 321.5 201.25C323.97 204.41 337.81 223.17 338.5 225Z" fill="#4A2971"/>
<path d="M353 246.5C356.55 251.63 362.18 265.67 364.5 272C363.99 272.05 363.75 273.01 363.5 273.5C356.37 287.4 320.14 324.32 308 339.25C292.11 354.06 278.35 371.22 263 386.5C262.9 386.6 261.76 386.08 262 387.5C240.1 372.53 205.73 333.58 189.5 311.75C183.49 303.67 178.59 294.84 173 286.5C175.82 286.33 178.75 287.59 181.5 288C183.32 288.27 185.61 288.3 187.5 288.5L191.5 297C191.56 297.14 191.43 297.36 191.5 297.5C198.63 312.28 216.56 328.55 232 334C257.09 342.85 290.74 337.91 312.25 322C334.24 305.73 343.12 279.71 341 253C342.98 251.6 349.18 246.26 350.5 244.5C351.23 244.71 352.66 246.01 353 246.5Z" fill="#4A2971"/>
<path d="M378.5 272C381.75 277.45 380.97 273.22 381.5 272.25C385.78 264.45 384.29 260.86 384.5 251.75C382.26 243.53 381.66 245.14 381.5 244.75C381.28 244.23 381.72 242.72 381.5 242.25C381.42 242.08 380.19 241.66 379 239.5C364.6 213.36 325.35 165.22 304 143.25C290.19 129.04 284.13 119.12 262.5 121.25C269.95 127.35 295.81 151.2 299.5 156.25C299.71 156.54 299.47 157.06 299 157C286.75 144.22 273.85 131.78 260 120.75C280.03 117.56 314.48 132.82 330.75 144.5C373.87 175.45 393.47 235.56 382.25 286.5L378.5 272Z" fill="#8E60A8"/>
<path d="M379 239.5L370 252C365.91 244.08 345.43 212.39 339.5 204.25C328.49 189.13 312.03 170.61 299 157C299.47 157.06 299.71 156.54 299.5 156.25C295.81 151.2 269.95 127.35 262.5 121.25C284.13 119.12 290.19 129.04 304 143.25C325.35 165.22 364.6 213.36 379 239.5Z" fill="url(#paint1_linear_1575_2)"/>
<path d="M192 180.5L186.75 173.5L175 188.5C167.02 190.52 161.87 200.73 163 208.5C158.25 214.43 172.66 234.08 172.5 236.25L158 262.5C149.84 245.72 137.1 217.5 141 199C141.95 201.24 139.52 212.68 142.75 213C147.03 199.94 157.07 189.88 166.75 180.5C176.18 171.36 228.02 126.07 236.5 123C238.28 120.69 246.07 126.91 248 129.25C247.72 132.08 221.78 145.11 213.75 150.5C204.49 156.72 195.38 164.4 187.5 172.25C189.09 175 190.57 177.66 192 180.5Z" fill="#8E60A8"/>
<path d="M231.5 122C233.13 123.68 236.88 120.94 236.5 123C228.02 126.07 176.18 171.36 166.75 180.5C157.07 189.88 147.03 199.94 142.75 213C139.52 212.68 141.95 201.24 141 199C144.47 182.54 163.2 158.76 176.25 148C190.01 136.65 213.93 124.73 231.5 122Z" fill="#B78EC1"/>
<path d="M250 129C231.58 148.97 213.51 175.35 203.25 200.5C199.43 193.86 195.45 187.35 192 180.5C190.57 177.66 189.09 175 187.5 172.25C195.38 164.4 204.49 156.72 213.75 150.5C221.78 145.11 247.72 132.08 248 129.25C246.07 126.91 238.28 120.69 236.5 123C236.88 120.94 233.13 123.68 231.5 122C233.74 121.65 235.91 120.72 238.25 121C242.43 123.3 246.14 126.23 250 129Z" fill="#8E60A8"/>
<path d="M378.5 272C375.42 266.83 372.91 257.64 370 252L379 239.5C380.19 241.66 381.42 242.08 381.5 242.25C381.72 242.72 381.28 244.23 381.5 244.75C381.66 245.14 382.26 243.53 384.5 251.75C384.29 260.86 385.78 264.45 381.5 272.25C380.97 273.22 381.75 277.45 378.5 272Z" fill="#804C9E"/>
<path d="M149 272C148.38 271.89 148.92 273.29 149 273.5C146.78 273.05 148.67 272.93 148 271.75C144.43 265.47 139.75 256.8 137 250.25C135.25 246.06 132.89 236.87 132.5 236.25C130.88 233.64 127.88 249.4 126 249.5C126.53 240.96 129.11 232.24 131.25 224C133.33 241.1 140.89 256.98 149 272Z" fill="#B78EC1"/>
<path d="M150 274C150.05 274.1 151.1 274.81 151 276C150.9 275.87 150.14 276.48 149 273.5C149.5 273.6 149.57 274.01 150 274Z" fill="#B78EC1"/>
<path d="M150 274C149.57 274 149.5 273.6 149 273.5C148.92 273.29 148.38 271.89 149 272C149.38 272.71 149.65 273.3 150 274Z" fill="#682C8B"/>
<path d="M262 387.5C261.76 386.08 262.9 386.6 263 386.5C261.97 387.82 268.74 390.54 271.75 393C292.13 385.86 302.95 380.54 319.75 367C339.99 350.68 360.68 326.23 372 302.75L367.75 286.5C357.78 303.65 347.31 321.13 334 335.75C345.25 318.82 357.83 302.59 367 284.25C366.5 280.92 365.05 273.96 363.5 273.5C363.75 273.01 363.99 272.05 364.5 272C373.28 295.97 377.13 306.23 364.5 329.75C346.06 364.08 310.38 385.59 273.25 394C269.74 393.99 264.82 389.43 262 387.5Z" fill="#8E60A8"/>
<path d="M263 386.5C278.35 371.22 292.11 354.06 308 339.25C320.14 324.32 356.37 287.4 363.5 273.5C365.05 273.96 366.5 280.92 367 284.25C357.83 302.59 345.25 318.82 334 335.75C347.31 321.13 357.78 303.65 367.75 286.5L372 302.75C360.68 326.23 339.99 350.68 319.75 367C302.95 380.54 292.13 385.86 271.75 393C268.74 390.54 261.97 387.82 263 386.5Z" fill="#804C9E"/>
<path d="M163 208.5C161.87 200.73 167.02 190.52 175 188.5C183.94 186.24 194.04 193.56 195 202.75C197.28 224.53 165.85 228.11 163 208.5Z" fill="#EDCAE0"/>
<path d="M188.25 195C198.58 208.68 181.84 222.52 172.75 217C169.86 215.25 176.35 215.98 181.25 213C187.71 209.06 189.27 202.03 188.25 195Z" fill="#BD8ABE"/>
<path d="M181.75 193.5C182.81 193.28 182.14 194.51 182 194.75C179.55 198.81 163.41 210.12 181.75 193.5Z" fill="#C493C2"/>
<path d="M245.5 220.5L252 245.5C243.72 251.07 234.62 255.28 226 260.25L231 278.5C216.86 279.87 202.86 280.8 188.75 278.5C186.08 277.31 184.62 266.89 184.5 264C184.49 263.67 184.5 263.33 184.5 263C184.5 262.67 184.5 262.33 184.5 262C184.48 234.45 198.01 211.04 221.5 197C221.7 198.69 218.31 199.36 218 200.25C216.85 203.57 220.15 226.51 220.75 232.5C224.93 231.93 242.95 220.29 244.25 220C244.32 219.99 244.66 220.73 245.5 220.5Z" fill="#EDCAE0"/>
<path d="M331.5 228.5C331.84 229.15 332.95 230.86 333 231C334.91 236.67 334.86 242.74 330.25 247C323.93 252.84 295.29 263.98 286 267C287.19 261.71 285.23 256.17 284 251C281.88 242.1 278.76 233.53 275.5 225C275.44 224.85 275.56 224.65 275.5 224.5C284.14 213.8 295.68 200.76 282.5 189C290.61 191.32 303.2 197.71 309.75 203C314.62 206.93 328.75 223.26 331.5 228.5Z" fill="url(#paint2_linear_1575_2)"/>
<path d="M282.5 189C295.68 200.76 284.14 213.8 275.5 224.5C272.79 217.48 270.12 210.86 266 204.5C262.73 199.45 254.19 188.48 249 187C261.24 185.26 270.45 185.55 282.5 189Z" fill="#C574B0"/>
<path d="M233 191.5L232 193.25C237.67 201.24 240.37 211.39 246 219L245.5 220.5C244.66 220.73 244.32 219.99 244.25 220C242.95 220.29 224.93 231.93 220.75 232.5C220.15 226.51 216.85 203.57 218 200.25C218.31 199.36 221.7 198.69 221.5 197C225.26 194.75 228.93 193.11 233 191.5Z" fill="#DAA7CD"/>
<path d="M249 187C254.19 188.48 262.73 199.45 266 204.5L246 219C240.37 211.39 237.67 201.24 232 193.25L233 191.5C239.62 188.88 241.73 188.03 249 187Z" fill="#CD7FB5"/>
<path d="M284 251C278.2 256.38 264.93 267.11 263.5 273C250.25 276.06 244.88 277.15 231 278.5L226 260.25C234.62 255.28 243.72 251.07 252 245.5C262.02 238.76 267 233.25 275.5 225C278.76 233.53 281.88 242.1 284 251Z" fill="url(#paint3_linear_1575_2)"/>
<path d="M266 204.5C270.12 210.86 272.79 217.48 275.5 224.5C275.56 224.65 275.44 224.85 275.5 225C267 233.25 262.02 238.76 252 245.5L245.5 220.5L246 219L266 204.5Z" fill="#DAA7CD"/>
<path d="M286 267C278.54 269.43 271.14 271.24 263.5 273C264.93 267.11 278.2 256.38 284 251C285.23 256.17 287.19 261.71 286 267Z" fill="#945AA4"/>
<path d="M353 246.5C352.66 246.01 351.23 244.71 350.5 244.5C358.33 234.01 349.13 226.62 338.5 226.5C338.43 226.01 338.61 225.3 338.5 225C352.01 223.51 363.1 233.9 353 246.5Z" fill="#8652A1"/>
<path d="M168 271.5C166.3 283.12 173.92 282.87 181.5 288C178.75 287.59 175.82 286.33 173 286.5C171.89 284.84 168.9 283.12 167.5 281.25C166.05 278.9 164.88 276.37 163.5 274C164.87 273.2 166.74 272.39 168 271.5Z" fill="#D0A7CE"/>
<path d="M350.5 244.5C349.18 246.26 342.98 251.6 341 253C324.14 264.92 285.97 277.78 265.5 282.5C252.03 285.61 238.3 288.07 224.5 289C211.98 289.84 199.95 289.78 187.5 288.5C185.61 288.3 183.32 288.27 181.5 288C173.92 282.87 166.3 283.12 168 271.5C173.21 267.82 178.24 263.89 184.5 262C184.5 262.33 184.5 262.67 184.5 263C175.01 267.8 169.69 276.73 182.75 281.5C204.98 289.61 262.48 280.74 286 271.5C288.11 271.17 289.99 270.68 292 270C302.55 265.65 352.66 250.31 344.5 233.75C342.33 229.34 336.68 229.59 333 227.5C334.13 227.22 338.22 226.5 338.5 226.5C349.13 226.62 358.33 234.01 350.5 244.5Z" fill="#F7E2EE"/>
<path d="M333 227.5C336.68 229.59 342.33 229.34 344.5 233.75C352.66 250.31 302.55 265.65 292 270L291 269.25C293.23 268.34 323.74 257.55 322.5 255.75C322.07 255.13 320.56 255.98 320.5 255C324.94 252.69 338.05 245.39 340 241.25C342.63 235.67 339.18 230.04 333 231C332.95 230.86 331.84 229.15 331.5 228.5C331.3 227 332.25 227.68 333 227.5Z" fill="#8652A1"/>
<path d="M320.5 255C307.38 261.84 291.24 267.5 277 271.5C258.52 276.68 237.39 280.77 218.25 281.5C207.14 281.92 160.08 283.41 184.5 264C184.62 266.89 186.08 277.31 188.75 278.5C202.86 280.8 216.86 279.87 231 278.5C244.88 277.15 250.25 276.06 263.5 273C271.14 271.24 278.54 269.43 286 267C295.29 263.98 323.93 252.84 330.25 247C334.86 242.74 334.91 236.67 333 231C339.18 230.04 342.63 235.67 340 241.25C338.05 245.39 324.94 252.69 320.5 255Z" fill="#F7E2EE"/>
<path d="M184.5 263C184.5 263.33 184.49 263.67 184.5 264C160.08 283.41 207.14 281.92 218.25 281.5C237.39 280.77 258.52 276.68 277 271.5C278.77 271.89 284.54 271.73 286 271.5C262.48 280.74 204.98 289.61 182.75 281.5C169.69 276.73 175.01 267.8 184.5 263Z" fill="#D0A7CE"/>
<path d="M292 270C289.99 270.68 288.11 271.17 286 271.5C284.54 271.73 278.77 271.89 277 271.5C291.24 267.5 307.38 261.84 320.5 255C320.56 255.98 322.07 255.13 322.5 255.75C323.74 257.55 293.23 268.34 291 269.25L292 270Z" fill="#9268AC"/>
<path d="M198 292.5L212.5 294.25L200.5 301.75C200.4 302.16 202.75 308.66 201.5 310C197.33 306.39 195.7 301 191.5 297.5C191.43 297.36 191.56 297.14 191.5 297C183.85 280.5 195.17 295.1 197.75 300.5C210.37 296.1 197.87 298.08 198 292.5Z" fill="#9268AC"/>
<path d="M224.5 289C224.69 290.17 224.02 289.95 224 290C215.22 291.34 198.08 288.82 198 292.5C197.87 298.08 210.37 296.1 197.75 300.5C195.17 295.1 183.85 280.5 191.5 297L187.5 288.5C199.95 289.78 211.98 289.84 224.5 289Z" fill="#8652A1"/>
<path d="M341 253C343.12 279.71 334.24 305.73 312.25 322C290.74 337.91 257.09 342.85 232 334C226.52 328.31 217.66 330.7 230.75 325C230.66 322.73 236.98 316.86 240 316.25C234.59 311.86 243.85 308.43 244.75 301.5L251.75 300C255.8 308.53 254.96 300.61 259 299.25C259.09 295.55 265.22 294.07 263 291.25C263.2 290.67 266.79 291.41 271 282.75L265.5 282.5C285.97 277.78 324.14 264.92 341 253Z" fill="url(#paint4_linear_1575_2)"/>
<path d="M295.25 277C300.16 277 287.59 294.03 286.5 286.25C286.01 282.77 294.44 277 295.25 277Z" fill="#622D90"/>
<path d="M247.25 304C247.75 303.74 251.09 303.82 251.5 304.75C253.45 309.13 247.08 309.65 246.5 308.75C245.67 307.47 247.02 304.12 247.25 304Z" fill="#814D9F"/>
<path d="M224 290C222.11 295.46 213.73 300.49 213.5 301.25C212.92 303.18 216.01 302.87 216 304.25C215.98 307.23 209.88 301.8 213.75 309C210.15 305.63 208.72 310.15 207.75 310.5C206.62 310.9 202.9 309.94 202.25 311.5C201.23 310.81 201.56 310.05 201.5 310C202.75 308.66 200.4 302.16 200.5 301.75L212.5 294.25L198 292.5C198.08 288.82 215.22 291.34 224 290Z" fill="#8A59A4"/>
<path d="M232 334C216.56 328.55 198.63 312.28 191.5 297.5C195.7 301 197.33 306.39 201.5 310C201.56 310.05 201.23 310.81 202.25 311.5C202.9 309.94 206.62 310.9 207.75 310.5C208.72 310.15 210.15 305.63 213.75 309C209.88 301.8 215.98 307.23 216 304.25C216 302.87 212.92 303.18 213.5 301.25C213.73 300.49 222.11 295.46 224 290C224.02 289.95 224.69 290.17 224.5 289C238.3 288.07 252.03 285.61 265.5 282.5L271 282.75C266.79 291.41 263.2 290.67 263 291.25C265.22 294.07 259.09 295.55 259 299.25C254.96 300.61 255.8 308.53 251.75 300L244.75 301.5C243.85 308.43 234.59 311.86 240 316.25C236.98 316.86 230.66 322.73 230.75 325C217.66 330.7 226.52 328.31 232 334Z" fill="#814D9F"/>
<path d="M226.25 292.5C228.14 291.9 237.61 300.74 236.25 309C233.86 309.15 235.44 305.67 232 306.25C230.79 305.15 235.21 300.77 230.75 299C227.83 297.84 225.27 300.62 224.5 298.75C223.78 297.01 225.78 292.65 226.25 292.5Z" fill="#8652A1"/>
<path d="M221.75 309C222.99 308.53 223.5 310.01 222.75 310.5C222.67 310.55 220.85 309.59 221.75 309Z" fill="#8652A1"/>
<path d="M222.25 303.5C223 303.2 223.35 304.26 222.75 304.5C222 304.8 221.65 303.74 222.25 303.5Z" fill="#8652A1"/>
<defs>
<linearGradient id="paint0_linear_1575_2" x1="125.35" y1="310.12" x2="238.4" y2="320.24" gradientUnits="userSpaceOnUse">
<stop stop-color="#9056A2"/>
<stop offset="0.77" stop-color="#492A73"/>
</linearGradient>
<linearGradient id="paint1_linear_1575_2" x1="265.51" y1="142.41" x2="379.78" y2="227.55" gradientUnits="userSpaceOnUse">
<stop stop-color="#8A56A3"/>
<stop offset="0.84" stop-color="#4B2B77"/>
</linearGradient>
<linearGradient id="paint2_linear_1575_2" x1="326.84" y1="225.05" x2="281.95" y2="228.16" gradientUnits="userSpaceOnUse">
<stop stop-color="#735389"/>
<stop offset="1" stop-color="#9158A4"/>
</linearGradient>
<linearGradient id="paint3_linear_1575_2" x1="276.88" y1="247.95" x2="230.12" y2="256.3" gradientUnits="userSpaceOnUse">
<stop stop-color="#C472AE"/>
<stop offset="1" stop-color="#CF84B8"/>
</linearGradient>
<linearGradient id="paint4_linear_1575_2" x1="267.14" y1="280.74" x2="315.21" y2="313.2" gradientUnits="userSpaceOnUse">
<stop stop-color="#763F98"/>
<stop offset="1" stop-color="#250F3A"/>
</linearGradient>
</defs>
</svg>
